<svg version="1.0" xmlns="http://www.w3.org/2000/svg"
 width="18px" height="18px" viewBox="0 0 26.000000 26.000000"
 preserveAspectRatio="xMidYMid meet">
<g transform="translate(0.000000,26.000000) scale(0.100000,-0.100000)"
fill="#000000" stroke="none">
<path d="M10 130 c0 -83 1 -90 20 -90 18 0 20 7 20 64 0 56 3 66 20 71 33 10
40 -3 40 -71 0 -57 2 -64 20 -64 18 0 20 7 20 64 0 56 3 66 20 71 33 10 40 -3
40 -71 0 -57 2 -64 20 -64 18 0 20 7 20 61 0 66 -10 93 -40 109 -15 8 -27 7
-47 -4 -24 -12 -30 -12 -49 1 -17 11 -27 12 -43 3 -14 -7 -21 -7 -21 0 0 5 -9
10 -20 10 -19 0 -20 -7 -20 -90z"/>
</g>
</svg>
